<svg width="100" height="100" viewBox="0 0 100 100" fill="none" xmlns="http://www.w3.org/2000/svg">
<circle cx="50" cy="50" r="50" fill="#3FBA77"/>
<g filter="url(#filter0_f_410_571)">
<path d="M67.9439 33.88C68.2169 33.6014 68.5427 33.3802 68.9023 33.2291C69.2618 33.0781 69.6479 33.0002 70.0379 33.0002C70.4279 33.0002 70.814 33.0781 71.1736 33.2291C71.5331 33.3802 71.8589 33.6014 72.1319 33.88C73.2759 35.036 73.2919 36.904 72.1719 38.08L48.5199 66.04C48.2514 66.3349 47.9255 66.5719 47.5622 66.7365C47.199 66.9011 46.8059 66.9898 46.4071 66.9973C46.0084 67.0048 45.6123 66.9309 45.2431 66.78C44.8739 66.6292 44.5393 66.4046 44.2599 66.12L29.8679 51.536C29.3129 50.9699 29.002 50.2088 29.002 49.416C29.002 48.6232 29.3129 47.862 29.8679 47.296C30.1409 47.0174 30.4667 46.7962 30.8263 46.6451C31.1858 46.494 31.5719 46.4162 31.9619 46.4162C32.3519 46.4162 32.738 46.494 33.0976 46.6451C33.4571 46.7962 33.7829 47.0174 34.0559 47.296L46.2639 59.668L67.8639 33.968C67.8888 33.9371 67.9155 33.9077 67.9439 33.88Z" fill="white"/>
</g>
<path d="M67.9439 33.88C68.2169 33.6014 68.5427 33.3802 68.9023 33.2291C69.2618 33.0781 69.6479 33.0002 70.0379 33.0002C70.4279 33.0002 70.814 33.0781 71.1736 33.2291C71.5331 33.3802 71.8589 33.6014 72.1319 33.88C73.2759 35.036 73.2919 36.904 72.1719 38.08L48.5199 66.04C48.2514 66.3349 47.9255 66.5719 47.5622 66.7365C47.199 66.9011 46.8059 66.9898 46.4071 66.9973C46.0084 67.0048 45.6123 66.9309 45.2431 66.78C44.8739 66.6292 44.5393 66.4046 44.2599 66.12L29.8679 51.536C29.3129 50.9699 29.002 50.2088 29.002 49.416C29.002 48.6232 29.3129 47.862 29.8679 47.296C30.1409 47.0174 30.4667 46.7962 30.8263 46.6451C31.1858 46.494 31.5719 46.4162 31.9619 46.4162C32.3519 46.4162 32.738 46.494 33.0976 46.6451C33.4571 46.7962 33.7829 47.0174 34.0559 47.296L46.2639 59.668L67.8639 33.968C67.8888 33.9371 67.9155 33.9077 67.9439 33.88Z" fill="white"/>
<defs>
<filter id="filter0_f_410_571" x="13" y="14" width="72" height="72" filterUnits="userSpaceOnUse" color-interpolation-filters="sRGB">
<feFlood flood-opacity="0" result="BackgroundImageFix"/>
<feBlend mode="normal" in="SourceGraphic" in2="BackgroundImageFix" result="shape"/>
<feGaussianBlur stdDeviation="2" result="effect1_foregroundBlur_410_571"/>
</filter>
</defs>
</svg>
