<svg width="82" height="77" viewBox="0 0 82 77" fill="none" xmlns="http://www.w3.org/2000/svg">
<g id="Logo">
<g id="Vector">
<path d="M29.9964 61.406C33.4368 59.3925 37.8359 60.5874 39.8222 64.0748C41.8085 67.5622 40.6298 72.0215 37.1894 74.0349C33.749 76.0484 18.5387 76.5308 18.5387 76.5308C18.5387 76.5308 26.556 63.4194 29.9964 61.406Z" fill="#3FBA77" fill-opacity="0.9"/>
<path d="M44.384 74.5041C40.9437 72.4907 39.7649 68.0314 41.7512 64.544C43.7375 61.0566 48.1367 59.8617 51.5771 61.8752C55.0174 63.8886 63.0348 77 63.0348 77C63.0348 77 47.8244 76.5176 44.384 74.5041Z" fill="#3FBA77" fill-opacity="0.9"/>
<path d="M55.5697 70.1925C50.1856 70.1925 45.8209 66.0156 45.8209 60.8631C45.8209 55.7106 50.1856 51.5337 55.5697 51.5337C60.9538 51.5337 79.1292 60.8631 79.1292 60.8631C79.1292 60.8631 60.9538 70.1925 55.5697 70.1925Z" fill="#3FBA77" fill-opacity="0.8"/>
<path d="M26.4303 51.5337C31.8144 51.5337 36.1791 55.7106 36.1791 60.8631C36.1791 66.0156 31.8144 70.1925 26.4303 70.1925C21.0462 70.1925 2.87083 60.8631 2.87083 60.8631C2.87083 60.8631 21.0462 51.5337 26.4303 51.5337Z" fill="#3FBA77" fill-opacity="0.8"/>
<path d="M35.9975 41.1772C42.0757 47.3386 42.7943 56.5996 37.6025 61.8624C32.4107 67.1252 23.2745 66.3968 17.1963 60.2355C11.118 54.0742 0 23.746 0 23.746C0 23.746 29.9193 35.0159 35.9975 41.1772Z" fill="#69BA62" fill-opacity="0.7"/>
<path d="M64.8037 59.3463C58.7255 65.5076 49.5893 66.236 44.3975 60.9732C39.2057 55.7104 39.9243 46.4494 46.0025 40.2881C52.0807 34.1268 82 22.8568 82 22.8568C82 22.8568 70.882 53.185 64.8037 59.3463Z" fill="#69BA62" fill-opacity="0.7"/>
<path d="M58.0924 47.763C58.0924 58.6783 50.4399 67.5269 41 67.5269C31.5601 67.5269 23.9076 58.6783 23.9076 47.763C23.9076 36.8476 41 0 41 0C41 0 58.0924 36.8476 58.0924 47.763Z" fill="#85BA54" fill-opacity="0.6"/>
</g>
</g>
</svg>
